{"title":"Salamander 2012 TV Serie 4DVDrip Dutch English Klam","uid":8857147,"size":8162299623,"categoryP":"video","categoryS":"movies","magnet":"?xt=urn:btih:82b6f1c1e10e90673e232d8ed15b5617dd0404b0&amp;dn=Salamander+2012+TV+Serie+4DVDrip+Dutch+English+Klam&amp;tr=udp%3A%2F%2Ftracker.openbittorrent.com%3A80&amp;tr=udp%3A%2F%2Fopen.demonii.com%3A1337&amp;tr=udp%3A%2F%2Ftracker.coppersurfer.tk%3A6969&amp;tr=udp%3A%2F%2Fexodus.desync.com%3A6969","seeders":2,"leechers":0,"uploader":"Klambake","files":-1,"time":1377689563,"description":"[img] http://img5.imageshack.us/img5/1042/sm7m.jpg[/img]\n\nPolitie-inspecteur Paul Gerardi komt op het spoor van een megakraak. Wanneer hij de zaak verder wil onderzoeken, verliest hij prompt zijn job. Wanneer niet alleen de machtigen van het land, maar ook de krakers achter zijn identiteit komen, staat zijn leven op het spel.\n\nPolice Inspector Paul Gerardi is on the trail of a mega cracking...\n\nwww.imdb.com/title/tt2569488\t\n\n------------------------ Dutch Friends ------------------------\n---------------------------------------------------------------\n- Bezoek ook eens mijn vrienden op: &lt;a href=&quot; http://www.Film-Test.nl&quot; rel=&quot;nofollow&quot; target=&quot;_NEW&quot;&gt; http://www.Film-Test.nl&lt;/a&gt; --\n----- voor mijn Nederlandse Sync. ondertitels ---- en meer ----\n------- http://www.Film-Test.nl ---- Over Films en meer -------\n---------------------------------------------------------------\n\nGeneral:\n\nComplete name                    : SalamanderPart01.avi\nFormat                           : AVI\nFormat/Info                      : Audio Video Interleave\nFile size                        : 650 MiB\nDuration                         : 47mn 9s\nOverall bit rate                 : 1 928 Kbps\n\nVideo:\n\nFormat                           : MPEG-4 Visual\nFormat profile                   : Simple@L3\nFormat settings, BVOP            : No\nFormat settings, QPel            : No\nFormat settings, GMC             : No warppoints\nFormat settings, Matrix          : Default (H.263)\nCodec ID                         : XVID\nCodec ID/Hint                    : XviD\nDuration                         : 47mn 9s\nBit rate                         : 1 661 Kbps\nWidth                            : 704 pixels\nHeight                           : 396 pixels\nDisplay aspect ratio             : 16:9\nFrame rate                       : 25.000 fps\nColor space                      : YUV\nChroma subsampling               : 4:2:0\nBit depth                        : 8 bits\nScan type                        : Progressive\nCompression mode                 : Lossy\nBits/(Pixel*Frame)               : 0.238\nStream size                      : 560 MiB (86%)\nWriting library                  : XviD 1.1.2 (UTC 2006-11-01)\n\nAudio:\n\nFormat                           : AC-3\nFormat/Info                      : Audio Coding 3\nMode extension                   : CM (complete main)\nCodec ID                         : 2000\nDuration                         : 47mn 9s\nBit rate mode                    : Constant\nBit rate                         : 256 Kbps\nChannel(s)                       : 2 channels\nChannel positions                : Front: L R\nSampling rate                    : 48.0 KHz\nBit depth                        : 16 bits\nCompression mode                 : Lossy\nStream size                      : 86.4 MiB (13%)\nAlignment                        : Aligned on interleaves\nInterleave, duration             : 32 ms (0.80 video frame)\nInterleave, preload duration     : 288 ms","torrent":{"xt":"urn:btih:82b6f1c1e10e90673e232d8ed15b5617dd0404b0","amp;dn":"Salamander+2012+TV+Serie+4DVDrip+Dutch+English+Klam","amp;tr":["udp%3A%2F%2Ftracker.openbittorrent.com%3A80","udp%3A%2F%2Fopen.demonii.com%3A1337","udp%3A%2F%2Ftracker.coppersurfer.tk%3A6969","udp%3A%2F%2Fexodus.desync.com%3A6969"],"infoHash":"82b6f1c1e10e90673e232d8ed15b5617dd0404b0","infoHashBuffer":{"type":"Buffer","data":[130,182,241,193,225,14,144,103,62,35,45,142,209,91,86,23,221,4,4,176]},"announce":[],"urlList":[]}}